<svg version="1.1" id="Layer_1" xmlns="http://www.w3.org/2000/svg" xmlns:xlink="http://www.w3.org/1999/xlink" x="0px" y="0px"
	 width="100%" viewBox="0 0 512 512" enable-background="new 0 0 512 512" xml:space="preserve">
<path fill="#313030" opacity="1.000000" stroke="none" 
	d="
M289.000000,513.000000 
	C267.979095,513.000000 246.958206,513.000000 225.377777,512.624756 
	C223.966110,511.855225 223.150208,511.258392 222.256149,511.098419 
	C214.445312,509.700928 206.538895,508.737549 198.816147,506.967712 
	C180.514847,502.773712 162.792191,496.822876 145.971893,487.886658 
	C144.593643,485.863647 143.417221,484.046844 141.923447,482.545837 
	C126.579788,467.128174 111.174248,451.772064 95.821815,436.363098 
	C94.434250,434.970428 93.296761,433.328583 92.499458,431.700745 
	C145.629196,431.585114 198.302628,431.574188 250.976044,431.545135 
	C252.959686,431.544037 254.943222,431.366486 257.378540,431.418365 
	C312.777527,431.565552 367.724854,431.565552 422.964264,431.565552 
	C422.964264,343.387451 422.964264,255.681305 422.964264,167.466507 
	C421.107574,167.466507 419.475067,167.466507 417.842529,167.466507 
	C365.360413,167.466415 312.878265,167.464645 260.396149,167.477234 
	C259.243652,167.477509 258.091187,167.641846 256.487396,167.611832 
	C228.332458,167.476913 200.628815,167.469711 172.925247,167.424561 
	C170.615173,167.420792 168.305527,167.160965 165.955429,166.676361 
	C164.813232,164.911285 163.843063,163.359726 162.587738,162.090073 
	C155.013611,154.429474 147.418243,146.788620 139.734863,139.237946 
	C136.681686,136.237518 133.385101,133.484756 130.478210,130.381104 
	C131.329178,129.808273 131.944717,129.530350 132.466827,129.130463 
	C140.624374,122.882660 148.573196,122.859512 157.125153,128.856140 
	C161.964417,132.249420 167.719772,134.336258 173.803482,137.382568 
	C172.242493,127.287521 170.670288,118.316750 169.599228,109.286537 
	C169.355072,107.228119 170.238937,104.406509 171.637909,102.890770 
	C177.937271,96.065575 184.608871,89.583946 191.469757,83.065323 
	C200.111664,91.191605 208.408478,99.253571 216.757217,107.261398 
	C221.282730,111.602150 225.896744,115.850632 230.475464,120.575027 
	C229.737335,126.225121 228.994553,131.440918 228.142685,137.422791 
	C238.159439,132.377197 247.575485,127.634186 257.320190,123.021751 
	C266.837677,127.787216 276.026489,132.422119 285.934357,137.419693 
	C284.359619,127.132767 282.822662,117.981499 281.668488,108.782188 
	C281.445038,107.001244 282.177643,104.528015 283.388519,103.234962 
	C289.857269,96.327126 296.617767,89.692497 303.591553,83.058655 
	C313.754242,92.751381 323.577911,102.374542 333.466431,111.930641 
	C336.432312,114.796844 339.579041,117.475967 342.654846,120.670151 
	C341.924988,125.948227 341.183228,130.796951 340.335297,136.339447 
	C342.268341,135.799393 343.846313,135.565063 345.239197,134.926895 
	C348.253815,133.545670 351.467926,132.348984 354.080139,130.384827 
	C364.160248,122.805382 373.901093,122.724548 384.141113,130.250076 
	C388.090271,133.152374 392.942078,134.826447 398.041809,137.391708 
	C396.523224,127.310654 395.356903,118.266815 393.704407,109.312706 
	C393.135895,106.232285 394.009583,104.416473 396.079529,102.394951 
	C402.613892,96.013535 408.973938,89.453667 415.707214,83.063416 
	C417.518494,84.441101 419.122223,85.619865 420.514923,87.010017 
	C443.295593,109.749451 466.036377,132.528885 488.840424,155.244858 
	C490.314362,156.713104 492.229797,157.738144 494.118561,159.284698 
	C502.062836,177.421127 507.092133,196.010056 510.132721,215.187836 
	C510.661987,218.526169 512.023132,221.732620 513.000000,225.000000 
	C513.000000,246.020889 513.000000,267.041779 512.625183,288.624939 
	C511.476959,293.325653 510.718781,297.466980 509.927887,301.602081 
	C503.474182,335.345001 491.642029,366.927246 472.862579,395.872498 
	C456.337616,421.342957 435.900299,443.099457 411.940643,461.590820 
	C395.048340,474.627777 376.698822,485.301483 357.003357,493.503601 
	C337.978607,501.426422 318.342255,507.331573 297.848816,510.191376 
	C294.827423,510.613037 291.946136,512.038818 289.000000,513.000000 
z"/>
<path fill="#4F4F4F" opacity="1.000000" stroke="none" 
	d="
M342.642914,120.240784 
	C339.579041,117.475967 336.432312,114.796844 333.466431,111.930641 
	C323.577911,102.374542 313.754242,92.751381 303.320374,82.765785 
	C297.799164,81.470863 292.863312,80.564064 287.754150,79.555573 
	C287.349335,79.318619 287.128418,79.167877 286.998230,79.062897 
	C287.078461,79.124153 286.958008,79.286133 286.829742,78.958168 
	C278.742737,70.515289 270.805206,62.379322 262.794983,54.315540 
	C261.919647,53.434341 260.625977,52.968697 259.590973,52.154549 
	C259.655609,51.998798 259.969299,52.122711 259.767822,51.891182 
	C259.218262,51.442291 258.870239,51.224926 258.338135,50.841881 
	C257.748169,50.307556 257.342224,49.938919 256.646851,49.678848 
	C252.308334,57.588169 248.106689,65.315254 244.286819,73.226662 
	C242.800308,76.305351 240.796661,77.580208 237.508850,78.042160 
	C228.732956,79.275230 220.004288,80.844376 209.496216,82.568893 
	C217.168655,90.004234 223.874420,96.355186 230.361771,102.921913 
	C231.568665,104.143585 232.609344,106.284706 232.491226,107.911804 
	C232.193359,112.015373 231.190918,116.067802 230.470825,120.140724 
	C225.896744,115.850632 221.282730,111.602150 216.757217,107.261398 
	C208.408478,99.253571 200.111664,91.191605 191.219696,82.763260 
	C185.424194,81.430382 180.202225,80.486427 174.845627,79.205154 
	C170.520157,74.446671 166.440460,69.913017 162.109375,65.633812 
	C157.080582,60.665241 151.831223,55.919903 146.761307,51.003426 
	C146.845016,50.929180 146.995499,51.094814 146.844330,50.900871 
	C146.487503,50.450817 146.263474,50.211960 145.649658,49.855667 
	C144.300842,50.884354 143.083786,51.920364 142.386444,53.232563 
	C138.883102,59.824814 135.358948,66.415222 132.170898,73.161652 
	C130.723297,76.224998 128.759811,77.578102 125.433968,78.039604 
	C116.650200,79.258476 107.916702,80.839630 99.163185,82.276566 
	C98.902000,82.733650 98.640808,83.190742 98.379616,83.647827 
	C104.910881,89.933884 111.372231,96.295212 118.013092,102.463272 
	C120.200386,104.494843 120.790298,106.445717 120.260201,109.431244 
	C118.656609,118.462814 117.457939,127.566277 116.014389,137.224350 
	C121.233879,134.793930 125.716606,132.706589 130.199326,130.619247 
	C133.385101,133.484756 136.681686,136.237518 139.734863,139.237946 
	C147.418243,146.788620 155.013611,154.429474 162.587738,162.090073 
	C163.843063,163.359726 164.813232,164.911285 165.512695,166.842087 
	C140.488800,167.351593 115.867378,167.351593 90.976112,167.351593 
	C90.882263,169.430496 90.758286,170.896820 90.758125,172.363129 
	C90.748833,257.168762 90.742371,341.974396 90.803688,426.779999 
	C90.804901,428.454437 91.612022,430.128296 92.043137,431.802429 
	C93.296761,433.328583 94.434250,434.970428 95.821815,436.363098 
	C111.174248,451.772064 126.579788,467.128174 141.923447,482.545837 
	C143.417221,484.046844 144.593643,485.863647 145.616653,487.775513 
	C140.628998,485.561829 135.895737,483.190552 131.262680,480.637451 
	C101.102905,464.017334 75.768982,441.554413 54.473244,414.789642 
	C39.348846,395.781036 27.161518,374.744934 18.479843,351.898071 
	C11.079295,332.422699 5.134854,312.553345 2.911772,291.719940 
	C2.808937,290.756256 1.661128,289.904114 1.000002,289.000000 
	C1.000000,267.979095 1.000000,246.958206 1.409799,225.464050 
	C2.210136,223.981476 2.773407,223.003525 2.963424,221.957764 
	C4.283490,214.692810 4.807776,207.195526 6.938462,200.183319 
	C11.829418,184.086899 16.767214,167.935257 23.004721,152.333252 
	C33.106987,127.064224 48.423008,104.834595 66.823524,84.927483 
	C76.144211,74.843636 86.430099,65.547920 96.965546,56.713921 
	C115.295372,41.344311 135.754837,29.215195 157.909256,20.174274 
	C178.764252,11.663633 200.259155,5.316983 222.775970,2.891096 
	C223.575943,2.804909 224.261246,1.654443 225.000000,1.000000 
	C246.020889,1.000000 267.041779,1.000000 288.532990,1.410132 
	C289.846680,2.205425 290.656433,2.801537 291.538818,2.942333 
	C298.523224,4.056799 305.656342,4.540886 312.491150,6.236792 
	C336.936127,12.302237 360.532837,20.579662 382.555237,33.152702 
	C417.539612,53.125988 446.376740,79.663170 469.209076,112.777138 
	C479.180084,127.238190 487.702576,142.497910 493.939850,158.969360 
	C492.229797,157.738144 490.314362,156.713104 488.840424,155.244858 
	C466.036377,132.528885 443.295593,109.749451 420.514923,87.010017 
	C419.122223,85.619865 417.518494,84.441101 415.421448,82.773476 
	C409.861115,81.464157 404.892242,80.545349 399.749023,79.533836 
	C399.345886,79.310562 399.127899,79.163940 398.998566,79.060333 
	C399.076447,79.119408 398.960297,79.276672 398.834534,78.948090 
	C392.627014,72.376816 386.612427,66.066597 380.432953,59.922165 
	C377.668121,57.173000 374.572571,54.756466 371.694458,52.084679 
	C371.761780,51.980370 371.972015,52.112484 371.808258,51.891548 
	C371.352600,51.448898 371.060730,51.227180 370.527588,50.839256 
	C367.841736,47.916824 367.714813,51.248699 367.271118,52.075283 
	C363.665161,58.792805 360.096527,65.540535 356.845642,72.434258 
	C355.198639,75.926895 353.028320,77.654732 349.058563,78.148758 
	C340.450409,79.220016 331.915833,80.882347 323.351166,82.302979 
	C323.021484,82.840973 322.691772,83.378960 322.362091,83.916946 
	C326.649017,87.768227 330.623077,92.059586 335.289337,95.377327 
	C344.440430,101.883797 346.392792,110.119911 342.642914,120.240784 
z"/>
<path fill="#000000" opacity="1.000000" stroke="none" 
	d="
M289.468658,513.000000 
	C291.946136,512.038818 294.827423,510.613037 297.848816,510.191376 
	C318.342255,507.331573 337.978607,501.426422 357.003357,493.503601 
	C376.698822,485.301483 395.048340,474.627777 411.940643,461.590820 
	C435.900299,443.099457 456.337616,421.342957 472.862579,395.872498 
	C491.642029,366.927246 503.474182,335.345001 509.927887,301.602081 
	C510.718781,297.466980 511.476959,293.325653 512.625183,289.093628 
	C513.000000,363.593719 513.000000,438.187408 513.000000,513.000000 
	C438.645905,513.000000 364.291626,513.000000 289.468658,513.000000 
z"/>
<path fill="#000000" opacity="1.000000" stroke="none" 
	d="
M1.000002,289.468658 
	C1.661128,289.904114 2.808937,290.756256 2.911772,291.719940 
	C5.134854,312.553345 11.079295,332.422699 18.479843,351.898071 
	C27.161518,374.744934 39.348846,395.781036 54.473244,414.789642 
	C75.768982,441.554413 101.102905,464.017334 131.262680,480.637451 
	C135.895737,483.190552 140.628998,485.561829 145.671173,488.128326 
	C162.792191,496.822876 180.514847,502.773712 198.816147,506.967712 
	C206.538895,508.737549 214.445312,509.700928 222.256149,511.098419 
	C223.150208,511.258392 223.966110,511.855225 224.909119,512.624756 
	C150.406296,513.000000 75.812599,513.000000 1.000000,513.000000 
	C1.000000,438.645905 1.000000,364.291626 1.000002,289.468658 
z"/>
<path fill="#000000" opacity="1.000000" stroke="none" 
	d="
M224.531342,1.000000 
	C224.261246,1.654443 223.575943,2.804909 222.775970,2.891096 
	C200.259155,5.316983 178.764252,11.663633 157.909256,20.174274 
	C135.754837,29.215195 115.295372,41.344311 96.965546,56.713921 
	C86.430099,65.547920 76.144211,74.843636 66.823524,84.927483 
	C48.423008,104.834595 33.106987,127.064224 23.004721,152.333252 
	C16.767214,167.935257 11.829418,184.086899 6.938462,200.183319 
	C4.807776,207.195526 4.283490,214.692810 2.963424,221.957764 
	C2.773407,223.003525 2.210136,223.981476 1.409799,224.995392 
	C1.000000,150.406296 1.000000,75.812576 1.000000,1.000000 
	C75.354088,1.000000 149.708389,1.000000 224.531342,1.000000 
z"/>
<path fill="#000000" opacity="1.000000" stroke="none" 
	d="
M494.118561,159.284698 
	C487.702576,142.497910 479.180084,127.238190 469.209076,112.777138 
	C446.376740,79.663170 417.539612,53.125988 382.555237,33.152702 
	C360.532837,20.579662 336.936127,12.302237 312.491150,6.236792 
	C305.656342,4.540886 298.523224,4.056799 291.538818,2.942333 
	C290.656433,2.801537 289.846680,2.205425 289.001648,1.410132 
	C363.593719,1.000000 438.187408,1.000000 513.000000,1.000000 
	C513.000000,75.354088 513.000000,149.708389 513.000000,224.531342 
	C512.023132,221.732620 510.661987,218.526169 510.132721,215.187836 
	C507.092133,196.010056 502.062836,177.421127 494.118561,159.284698 
z"/>
<path fill="#E4E4E4" opacity="1.000000" stroke="none" 
	d="
M256.938721,167.729645 
	C258.091187,167.641846 259.243652,167.477509 260.396149,167.477234 
	C312.878265,167.464645 365.360413,167.466415 417.842529,167.466507 
	C419.475067,167.466507 421.107574,167.466507 422.964264,167.466507 
	C422.964264,255.681305 422.964264,343.387451 422.964264,431.565552 
	C367.724854,431.565552 312.777527,431.565552 257.396606,430.996826 
	C256.983185,418.981812 257.003448,407.535522 257.484131,396.022675 
	C272.966919,395.881683 287.989258,395.807281 303.476685,395.786041 
	C332.513397,395.839203 361.085022,395.839203 389.671143,395.839203 
	C389.671143,385.509521 389.671143,375.927704 389.671143,366.353058 
	C388.906036,366.161163 388.438385,365.940826 387.970978,365.941406 
	C359.661652,365.977112 331.352325,366.030914 302.577087,366.004089 
	C287.070312,365.846130 272.029480,365.767120 256.981720,365.239075 
	C256.984894,357.125275 257.005859,349.460571 257.001953,341.795837 
	C256.998474,334.963654 256.986359,334.949432 250.058701,334.948578 
	C210.235229,334.943665 170.411743,334.949615 130.588272,334.942413 
	C124.027397,334.941223 124.010345,334.919556 124.009399,328.244110 
	C124.003738,288.253998 124.005035,248.263901 124.007988,208.273804 
	C124.008514,201.068497 124.017097,201.056671 131.070099,201.055923 
	C171.060196,201.051666 211.050507,200.995590 251.040131,201.134064 
	C255.529617,201.149612 257.269897,199.928391 257.096741,195.218582 
	C256.760284,186.066040 256.960693,176.893753 256.938721,167.729645 
M256.664093,294.566925 
	C256.778961,306.054352 257.032837,317.542969 256.932373,329.028503 
	C256.897827,332.980957 258.275116,334.199707 262.151978,334.190063 
	C302.977753,334.088562 343.803986,334.080841 384.629669,334.198883 
	C388.768463,334.210846 390.072693,332.859711 390.060608,328.740845 
	C389.941620,288.248474 389.942108,247.755432 390.059967,207.263046 
	C390.071899,203.155701 388.787231,201.782059 384.637543,201.794098 
	C343.811859,201.912674 302.985626,201.904297 262.159851,201.803650 
	C258.291382,201.794113 256.882965,202.998306 256.935638,206.960007 
	C257.092865,218.787338 256.915924,230.619125 256.188477,242.202698 
	C250.970490,239.296677 245.798584,236.303772 240.523026,233.506317 
	C233.714035,229.895721 227.476471,233.356613 227.389725,241.110886 
	C227.189117,259.044678 227.183121,276.983978 227.394730,294.917511 
	C227.485855,302.640991 233.743759,306.045258 240.579895,302.437347 
	C245.858780,299.651337 251.047226,296.693878 256.664093,294.566925 
z"/>
<path fill="#FFFFFF" opacity="1.000000" stroke="none" 
	d="
M257.023682,396.089264 
	C257.003448,407.535522 256.983185,418.981812 256.944885,430.849609 
	C254.943222,431.366486 252.959686,431.544037 250.976044,431.545135 
	C198.302628,431.574188 145.629196,431.585114 92.499458,431.700745 
	C91.612022,430.128296 90.804901,428.454437 90.803688,426.779999 
	C90.742371,341.974396 90.748833,257.168762 90.758125,172.363129 
	C90.758286,170.896820 90.882263,169.430496 90.976112,167.351593 
	C115.867378,167.351593 140.488800,167.351593 165.552948,167.185852 
	C168.305527,167.160965 170.615173,167.420792 172.925247,167.424561 
	C200.628815,167.469711 228.332458,167.476913 256.487396,167.611832 
	C256.960693,176.893753 256.760284,186.066040 257.096741,195.218582 
	C257.269897,199.928391 255.529617,201.149612 251.040131,201.134064 
	C211.050507,200.995590 171.060196,201.051666 131.070099,201.055923 
	C124.017097,201.056671 124.008514,201.068497 124.007988,208.273804 
	C124.005035,248.263901 124.003738,288.253998 124.009399,328.244110 
	C124.010345,334.919556 124.027397,334.941223 130.588272,334.942413 
	C170.411743,334.949615 210.235229,334.943665 250.058701,334.948578 
	C256.986359,334.949432 256.998474,334.963654 257.001953,341.795837 
	C257.005859,349.460571 256.984894,357.125275 256.973450,365.327454 
	C256.972107,365.864929 256.989655,366.041138 256.527039,365.972412 
	C212.185654,365.903656 168.306839,365.903656 124.394806,365.903656 
	C124.394806,376.180115 124.394806,385.879852 124.394806,395.765533 
	C168.862122,395.765533 212.948547,395.765533 257.025024,395.846222 
	C257.015106,395.926910 257.023682,396.089264 257.023682,396.089264 
z"/>
<path fill="#FDE245" opacity="1.000000" stroke="none" 
	d="
M130.478210,130.381104 
	C125.716606,132.706589 121.233879,134.793930 116.014389,137.224350 
	C117.457939,127.566277 118.656609,118.462814 120.260201,109.431244 
	C120.790298,106.445717 120.200386,104.494843 118.013092,102.463272 
	C111.372231,96.295212 104.910881,89.933884 98.379616,83.647827 
	C98.640808,83.190742 98.902000,82.733650 99.163185,82.276566 
	C107.916702,80.839630 116.650200,79.258476 125.433968,78.039604 
	C128.759811,77.578102 130.723297,76.224998 132.170898,73.161652 
	C135.358948,66.415222 138.883102,59.824814 142.386444,53.232563 
	C143.083786,51.920364 144.300842,50.884354 145.681549,50.150742 
	C146.388397,50.751934 146.691940,50.923370 146.995499,51.094810 
	C146.995499,51.094814 146.845016,50.929180 146.811066,51.371658 
	C148.792587,55.802330 151.398956,59.606548 152.709030,63.814354 
	C156.175232,74.947472 163.475052,80.078217 174.980255,79.542473 
	C180.202225,80.486427 185.424194,81.430382 190.896225,82.676392 
	C184.608871,89.583946 177.937271,96.065575 171.637909,102.890770 
	C170.238937,104.406509 169.355072,107.228119 169.599228,109.286537 
	C170.670288,118.316750 172.242493,127.287521 173.803482,137.382568 
	C167.719772,134.336258 161.964417,132.249420 157.125153,128.856140 
	C148.573196,122.859512 140.624374,122.882660 132.466827,129.130463 
	C131.944717,129.530350 131.329178,129.808273 130.478210,130.381104 
z"/>
<path fill="#FDBA13" opacity="1.000000" stroke="none" 
	d="
M342.654846,120.670151 
	C346.392792,110.119911 344.440430,101.883797 335.289337,95.377327 
	C330.623077,92.059586 326.649017,87.768227 322.362091,83.916946 
	C322.691772,83.378960 323.021484,82.840973 323.351166,82.302979 
	C331.915833,80.882347 340.450409,79.220016 349.058563,78.148758 
	C353.028320,77.654732 355.198639,75.926895 356.845642,72.434258 
	C360.096527,65.540535 363.665161,58.792805 367.271118,52.075283 
	C367.714813,51.248699 367.841736,47.916824 370.620422,51.155342 
	C371.293701,51.795914 371.632874,51.954201 371.972015,52.112484 
	C371.972015,52.112484 371.761780,51.980370 371.698151,52.456001 
	C375.300018,60.147766 378.865234,67.418205 382.718323,74.532753 
	C383.460846,75.903770 385.202118,77.265388 386.706970,77.589325 
	C390.726227,78.454544 394.867523,78.752983 398.960297,79.276672 
	C398.960297,79.276672 399.076447,79.119408 399.042145,79.295258 
	C399.007843,79.471115 399.446747,79.660027 399.446747,79.660027 
	C399.446747,79.660027 399.923401,79.626541 399.923401,79.626541 
	C404.892242,80.545349 409.861115,81.464157 415.115692,82.672905 
	C408.973938,89.453667 402.613892,96.013535 396.079529,102.394951 
	C394.009583,104.416473 393.135895,106.232285 393.704407,109.312706 
	C395.356903,118.266815 396.523224,127.310654 398.041809,137.391708 
	C392.942078,134.826447 388.090271,133.152374 384.141113,130.250076 
	C373.901093,122.724548 364.160248,122.805382 354.080139,130.384827 
	C351.467926,132.348984 348.253815,133.545670 345.239197,134.926895 
	C343.846313,135.565063 342.268341,135.799393 340.335297,136.339447 
	C341.183228,130.796951 341.924988,125.948227 342.654846,120.670151 
z"/>
<path fill="#FDB912" opacity="1.000000" stroke="none" 
	d="
M287.927490,79.657272 
	C292.863312,80.564064 297.799164,81.470863 303.006165,82.670517 
	C296.617767,89.692497 289.857269,96.327126 283.388519,103.234962 
	C282.177643,104.528015 281.445038,107.001244 281.668488,108.782188 
	C282.822662,117.981499 284.359619,127.132767 285.934357,137.419693 
	C276.026489,132.422119 266.837677,127.787216 257.323425,122.560143 
	C256.977448,97.835403 256.956879,73.702843 256.936310,49.570278 
	C257.342224,49.938919 257.748169,50.307556 258.494202,51.168007 
	C259.212646,51.814117 259.590973,51.968414 259.969299,52.122711 
	C259.969299,52.122711 259.655609,51.998798 259.579773,52.515686 
	C263.097565,60.111053 266.573395,67.253944 270.378296,74.217010 
	C271.199768,75.720299 273.057892,77.227058 274.696594,77.600891 
	C278.703369,78.514946 282.861053,78.767387 286.958008,79.286133 
	C286.958008,79.286133 287.078461,79.124153 287.033203,79.306595 
	C286.987915,79.489044 287.436615,79.690941 287.436615,79.690941 
	C287.436615,79.690941 287.927490,79.657272 287.927490,79.657272 
z"/>
<path fill="#FDE245" opacity="1.000000" stroke="none" 
	d="
M256.646851,49.678848 
	C256.956879,73.702843 256.977448,97.835403 256.994751,122.429573 
	C247.575485,127.634186 238.159439,132.377197 228.142685,137.422791 
	C228.994553,131.440918 229.737335,126.225121 230.475464,120.575027 
	C231.190918,116.067802 232.193359,112.015373 232.491226,107.911804 
	C232.609344,106.284706 231.568665,104.143585 230.361771,102.921913 
	C223.874420,96.355186 217.168655,90.004234 209.496216,82.568893 
	C220.004288,80.844376 228.732956,79.275230 237.508850,78.042160 
	C240.796661,77.580208 242.800308,76.305351 244.286819,73.226662 
	C248.106689,65.315254 252.308334,57.588169 256.646851,49.678848 
z"/>
<path fill="#343331" opacity="1.000000" stroke="none" 
	d="
M174.845627,79.205154 
	C163.475052,80.078217 156.175232,74.947472 152.709030,63.814354 
	C151.398956,59.606548 148.792587,55.802330 146.727356,51.445908 
	C151.831223,55.919903 157.080582,60.665241 162.109375,65.633812 
	C166.440460,69.913017 170.520157,74.446671 174.845627,79.205154 
z"/>
<path fill="#35342F" opacity="1.000000" stroke="none" 
	d="
M286.829742,78.958168 
	C282.861053,78.767387 278.703369,78.514946 274.696594,77.600891 
	C273.057892,77.227058 271.199768,75.720299 270.378296,74.217010 
	C266.573395,67.253944 263.097565,60.111053 259.515137,52.671436 
	C260.625977,52.968697 261.919647,53.434341 262.794983,54.315540 
	C270.805206,62.379322 278.742737,70.515289 286.829742,78.958168 
z"/>
<path fill="#36342F" opacity="1.000000" stroke="none" 
	d="
M398.834534,78.948090 
	C394.867523,78.752983 390.726227,78.454544 386.706970,77.589325 
	C385.202118,77.265388 383.460846,75.903770 382.718323,74.532753 
	C378.865234,67.418205 375.300018,60.147766 371.630798,52.560310 
	C374.572571,54.756466 377.668121,57.173000 380.432953,59.922165 
	C386.612427,66.066597 392.627014,72.376816 398.834534,78.948090 
z"/>
<path fill="#36342F" opacity="1.000000" stroke="none" 
	d="
M399.749023,79.533836 
	C399.923401,79.626541 399.446747,79.660027 399.446747,79.660027 
	C399.446747,79.660027 399.007843,79.471115 398.964264,79.236191 
	C399.127899,79.163940 399.345886,79.310562 399.749023,79.533836 
z"/>
<path fill="#35342F" opacity="1.000000" stroke="none" 
	d="
M287.754150,79.555573 
	C287.927490,79.657272 287.436615,79.690941 287.436615,79.690941 
	C287.436615,79.690941 286.987915,79.489044 286.952972,79.245346 
	C287.128418,79.167877 287.349335,79.318619 287.754150,79.555573 
z"/>
<path fill="#36342F" opacity="1.000000" stroke="none" 
	d="
M371.808258,51.891548 
	C371.632874,51.954201 371.293701,51.795914 370.861694,51.321545 
	C371.060730,51.227180 371.352600,51.448898 371.808258,51.891548 
z"/>
<path fill="#35342F" opacity="1.000000" stroke="none" 
	d="
M259.767822,51.891186 
	C259.590973,51.968414 259.212646,51.814117 258.678253,51.333694 
	C258.870239,51.224926 259.218262,51.442291 259.767822,51.891186 
z"/>
<path fill="#343331" opacity="1.000000" stroke="none" 
	d="
M146.844330,50.900867 
	C146.691940,50.923370 146.388397,50.751934 146.052948,50.285423 
	C146.263474,50.211960 146.487503,50.450817 146.844330,50.900867 
z"/>
<path fill="#B7B7B7" opacity="1.000000" stroke="none" 
	d="
M256.869507,242.449173 
	C256.915924,230.619125 257.092865,218.787338 256.935638,206.960007 
	C256.882965,202.998306 258.291382,201.794113 262.159851,201.803650 
	C302.985626,201.904297 343.811859,201.912674 384.637543,201.794098 
	C388.787231,201.782059 390.071899,203.155701 390.059967,207.263046 
	C389.942108,247.755432 389.941620,288.248474 390.060608,328.740845 
	C390.072693,332.859711 388.768463,334.210846 384.629669,334.198883 
	C343.803986,334.080841 302.977753,334.088562 262.151978,334.190063 
	C258.275116,334.199707 256.897827,332.980957 256.932373,329.028503 
	C257.032837,317.542969 256.778961,306.054352 256.563171,294.001892 
	C256.682129,293.251495 256.902802,293.067108 257.455200,292.823029 
	C267.893463,287.061554 278.074738,281.486755 288.082184,275.615753 
	C294.775787,271.688873 294.923645,264.374542 288.328461,260.527649 
	C278.031250,254.521408 267.516968,248.887329 257.021118,242.939972 
	C256.947601,242.784378 256.869476,242.449173 256.869507,242.449173 
z"/>
<path fill="#FFBB14" opacity="1.000000" stroke="none" 
	d="
M303.043030,366.083038 
	C331.352325,366.030914 359.661652,365.977112 387.970978,365.941406 
	C388.438385,365.940826 388.906036,366.161163 389.671143,366.353058 
	C389.671143,375.927704 389.671143,385.509521 389.671143,395.839203 
	C361.085022,395.839203 332.513397,395.839203 303.486725,395.335236 
	C303.035461,385.248535 303.039246,375.665771 303.043030,366.083038 
z"/>
<path fill="#F93065" opacity="1.000000" stroke="none" 
	d="
M256.528992,242.325928 
	C256.869476,242.449173 256.947601,242.784378 256.990448,243.401398 
	C257.063599,260.306854 257.093933,276.595276 257.124268,292.883698 
	C256.902802,293.067108 256.682129,293.251495 256.369080,293.624756 
	C251.047226,296.693878 245.858780,299.651337 240.579895,302.437347 
	C233.743759,306.045258 227.485855,302.640991 227.394730,294.917511 
	C227.183121,276.983978 227.189117,259.044678 227.389725,241.110886 
	C227.476471,233.356613 233.714035,229.895721 240.523026,233.506317 
	C245.798584,236.303772 250.970490,239.296677 256.528992,242.325928 
z"/>
<path fill="#B2136F" opacity="1.000000" stroke="none" 
	d="
M302.577057,366.004089 
	C303.039246,375.665771 303.035461,385.248535 303.021667,395.282074 
	C287.989258,395.807281 272.966919,395.881683 257.484131,396.022675 
	C257.023682,396.089264 257.015106,395.926910 257.023407,395.393158 
	C257.017700,385.253326 257.003662,375.647217 256.989655,366.041138 
	C256.989655,366.041138 256.972107,365.864929 256.980408,365.776550 
	C272.029480,365.767120 287.070312,365.846130 302.577057,366.004089 
z"/>
<path fill="#F92E64" opacity="1.000000" stroke="none" 
	d="
M256.527039,365.972412 
	C257.003662,375.647217 257.017700,385.253326 257.033325,395.312469 
	C212.948547,395.765533 168.862122,395.765533 124.394806,395.765533 
	C124.394806,385.879852 124.394806,376.180115 124.394806,365.903656 
	C168.306839,365.903656 212.185654,365.903656 256.527039,365.972412 
z"/>
<path fill="#B2146F" opacity="1.000000" stroke="none" 
	d="
M257.455200,292.823029 
	C257.093933,276.595276 257.063599,260.306854 257.063965,243.557007 
	C267.516968,248.887329 278.031250,254.521408 288.328461,260.527649 
	C294.923645,264.374542 294.775787,271.688873 288.082184,275.615753 
	C278.074738,281.486755 267.893463,287.061554 257.455200,292.823029 
z"/>
</svg>